<?xml version="1.0" encoding="UTF-8"?>
<svg width="238px" height="29px" viewBox="0 0 238 29" version="1.1" xmlns="http://www.w3.org/2000/svg" xmlns:xlink="http://www.w3.org/1999/xlink">
    <!-- Generator: Sketch 49.3 (51167) - http://www.bohemiancoding.com/sketch -->
    <title>Page 1</title>
    <desc>Created with Sketch.</desc>
    <defs>
        <polygon id="path-1" points="0 0.320984242 27.5080309 0.320984242 27.5080309 27.5206327 0 27.5206327"></polygon>
        <polygon id="path-3" points="0.133584242 0.16342303 4.78032364 0.16342303 4.78032364 4.79393939 0.133584242 4.79393939"></polygon>
        <polygon id="path-5" points="0.115767879 0.283647273 4.92473758 0.283647273 4.92473758 27.969697 0.115767879 27.969697"></polygon>
        <polygon id="path-7" points="0.936155758 0.283647273 14.8111921 0.283647273 14.8111921 27.969697 0.936155758 27.969697"></polygon>
    </defs>
    <g id="Page-1" stroke="none" stroke-width="1" fill="none" fill-rule="evenodd">
        <g id="Artboard" transform="translate(-63.000000, -35.000000)">
            <g id="Page-1" transform="translate(63.000000, 35.000000)">
                <g id="Group-3" transform="translate(0.000000, 0.613467)">
                    <mask id="mask-2" fill="white">
                        <use xlink:href="#path-1"></use>
                    </mask>
                    <g id="Clip-2"></g>
                    <path d="M2.46083091,0.320984242 L2.55787939,0.320984242 C3.33571576,0.320984242 4.02084909,0.693244848 4.61472788,1.43776606 C4.83055212,1.72891152 7.47983091,5.09663879 12.5640127,11.5409479 C13.3519885,12.5230206 13.7517703,13.0198509 13.7619097,13.0299903 C17.4540976,8.37745697 20.6060006,4.38977818 23.2176188,1.06550545 C23.7579036,0.568675152 24.3300552,0.320984242 24.9340733,0.320984242 L25.0948552,0.320984242 C25.9262855,0.320984242 26.6172127,0.730905455 27.167637,1.55074788 C27.3950491,1.96066909 27.5080309,2.37203879 27.5080309,2.78196 C27.5080309,3.49316606 27.1792248,4.20147515 26.5201642,4.90254182 L15.5102309,18.84276 C14.9815339,19.317863 14.399243,19.5554145 13.7619097,19.5554145 C12.8450188,19.5554145 12.110637,19.1339055 11.5602127,18.2923358 L5.06810364,10.0997055 L5.06810364,24.9307418 C5.06810364,26.1605055 4.49595212,26.9977297 3.35164909,27.4409661 C3.18941879,27.49456 3.07064303,27.5206327 2.99532182,27.5206327 L2.18561879,27.5206327 C1.78583697,27.5206327 1.32232182,27.2888752 0.793624848,26.82536 C0.318521818,26.3169418 0.080970303,25.7071297 0.080970303,24.9959236 L0.080970303,3.47723273 L-0.000144848485,2.81382667 C-0.000144848485,1.87520848 0.44743697,1.13503273 1.34404909,0.596196364 C1.71051576,0.412238788 2.08277636,0.320984242 2.46083091,0.320984242" id="Fill-1" fill="#F1F1F2" mask="url(#mask-2)"></path>
                </g>
                <path d="M72.0057752,20.5576552 C72.0057752,21.3456309 71.6219267,22.0843582 70.8571267,22.7752855 C70.8571267,22.81874 70.4573448,23.2185218 69.6577812,23.9731824 C66.7868842,26.5094794 63.4408842,27.7783521 59.6197812,27.7783521 C54.4602782,27.7783521 50.2176661,25.5013339 46.8948418,20.9458491 C46.3429691,20.1361461 45.8852479,19.326443 45.5173327,18.51674 C45.20446,17.7939461 44.9451812,17.0494248 44.7409448,16.2831764 C44.4599388,15.0635521 44.3194358,14.1249339 44.3194358,13.4658733 L44.3194358,11.2801097 C44.3194358,10.1575339 44.6221691,8.70615212 45.2261873,6.92451576 C45.6476964,5.89898848 46.1170055,4.98644303 46.6341145,4.18832788 C47.0454842,3.51912788 47.7900055,2.6181703 48.8691267,1.48545515 C49.365957,1.03207939 49.9265206,0.804667273 50.5522661,0.804667273 L50.6015145,0.804667273 C51.5517206,0.804667273 52.3005873,1.26963091 52.85246,2.19666121 C53.0248297,2.56457636 53.1117388,2.95856424 53.1117388,3.37862485 C53.1117388,3.94063697 52.9161933,4.46933394 52.5279994,4.96616424 C50.4450782,6.96217636 49.4036176,9.43908545 49.4036176,12.3968915 C49.4036176,15.8833945 50.8984539,18.7122855 53.8881267,20.8806673 C55.5727145,22.0249703 57.4934055,22.5971218 59.6516479,22.5971218 C62.8687327,22.5971218 65.56726,21.2703097 67.7472297,18.615237 C68.2759267,18.1937279 68.8422842,17.9836976 69.4477509,17.9836976 C70.397957,17.9836976 71.1526176,18.4370733 71.7146297,19.3438248 C71.9087267,19.7421582 72.0057752,20.1477339 72.0057752,20.5576552" id="Fill-4" fill="#F1F1F2"></path>
                <path d="M108.5538,0.448629697 L108.731964,0.448629697 C109.464897,0.448629697 110.10223,0.826684242 110.642515,1.58134485 C110.846752,1.97098727 110.949594,2.37511455 110.949594,2.79662364 C110.949594,3.62660545 110.539673,4.30159939 109.71983,4.82015697 C109.351915,4.99252667 109.017315,5.07943576 108.71603,5.07943576 L108.537867,5.07943576 C107.749891,5.07943576 107.102418,4.67965394 106.594,3.88153879 C106.399903,3.50348424 106.302855,3.1254297 106.302855,2.74737515 C106.302855,1.91594485 106.702636,1.24674485 107.500752,0.739775152 C107.858527,0.545678182 108.207612,0.448629697 108.5538,0.448629697" id="Fill-6" fill="#1E8DE0"></path>
                <g id="Group-10" transform="translate(22.727273, 23.340740)">
                    <mask id="mask-4" fill="white">
                        <use xlink:href="#path-3"></use>
                    </mask>
                    <g id="Clip-9"></g>
                    <path d="M2.3845297,0.16342303 L2.56269333,0.16342303 C3.29707515,0.16342303 3.93296,0.541477576 4.47324485,1.29613818 C4.67748121,1.68578061 4.78032364,2.08990788 4.78032364,2.51141697 C4.78032364,3.34139879 4.37040242,4.01639273 3.55056,4.5349503 C3.18409333,4.70732 2.84804485,4.79422909 2.54676,4.79422909 L2.36859636,4.79422909 C1.58062061,4.79422909 0.933147879,4.39444727 0.424729697,3.59633212 C0.232081212,3.21827758 0.133584242,2.84022303 0.133584242,2.46216848 C0.133584242,1.63073818 0.533366061,0.961538182 1.33148121,0.454568485 C1.68925697,0.260471515 2.0397903,0.16342303 2.3845297,0.16342303" id="Fill-8" fill="#1E8DE0" mask="url(#mask-4)"></path>
                </g>
                <g id="Group-13" transform="translate(135.709091, 0.164982)">
                    <mask id="mask-6" fill="white">
                        <use xlink:href="#path-5"></use>
                    </mask>
                    <g id="Clip-12"></g>
                    <path d="M2.43044667,0.283647273 L2.6086103,0.283647273 C3.42845273,0.283647273 4.10924061,0.687774545 4.64807697,1.49747758 C4.83203455,1.86539273 4.92473758,2.21592606 4.92473758,2.55052606 L4.92473758,25.7031079 C4.92473758,26.6750412 4.42211333,27.3920412 3.41831333,27.8570048 C3.19090121,27.9323261 3.03446485,27.9699867 2.94900424,27.9699867 L2.09005273,27.9699867 C1.70185879,27.9699867 1.23834364,27.7208473 0.698058788,27.2254655 C0.309864848,26.7720897 0.115767879,26.2419442 0.115767879,25.6379261 L0.115767879,2.63164121 C0.115767879,1.61625333 0.63287697,0.877526061 1.66999212,0.412562424 C1.9495497,0.327101818 2.20448303,0.283647273 2.43044667,0.283647273" id="Fill-11" fill="#F1F1F2" mask="url(#mask-6)"></path>
                </g>
                <path d="M165.572392,8.02565394 C165.572392,7.23767818 165.956241,6.49895091 166.721041,5.80802364 C166.721041,5.76456909 167.120822,5.36478727 167.920386,4.61012667 C170.791283,2.0738297 174.137283,0.80495697 177.958386,0.80495697 C183.117889,0.80495697 187.359053,3.08197515 190.683325,7.63746 C191.235198,8.44716303 191.692919,9.25686606 192.060835,10.0665691 C192.373707,10.789363 192.632986,11.5338842 192.837222,12.3001327 C193.118228,13.519757 193.258732,14.4583752 193.258732,15.1174358 L193.258732,17.3031994 C193.258732,18.4257752 192.955998,19.877157 192.35198,21.6587933 C191.930471,22.6843206 191.461162,23.5968661 190.944053,24.3949812 C190.532683,25.0641812 189.788162,25.9651388 188.709041,27.0978539 C188.21221,27.5512297 187.651647,27.7786418 187.025901,27.7786418 L186.976653,27.7786418 C186.026447,27.7786418 185.276132,27.3136782 184.725707,26.3866479 C184.553338,26.0187327 184.466428,25.6247448 184.466428,25.2046842 C184.466428,24.6426721 184.660525,24.1139752 185.050168,23.6171448 C187.133089,21.6211327 188.17455,19.1427752 188.17455,16.1864176 C188.17455,12.6999145 186.679713,9.87102364 183.690041,7.70119333 C182.005453,6.55833879 180.084762,5.98618727 177.925071,5.98618727 C174.709435,5.98618727 172.010907,7.31299939 169.829489,9.96807212 C169.302241,10.3895812 168.734435,10.5996115 168.130416,10.5996115 C167.18021,10.5996115 166.424101,10.1462358 165.863538,9.23948424 C165.669441,8.83970242 165.572392,8.43557515 165.572392,8.02565394" id="Fill-14" fill="#F1F1F2"></path>
                <path d="M213.162217,22.0635 L213.324447,22.0635 C214.30652,22.0635 215.13795,22.5270152 215.81729,23.4554939 C216.14175,23.9943303 216.302532,24.5027485 216.302532,24.9778515 L216.302532,25.2038152 C216.302532,26.1757485 215.849156,26.9955909 214.942405,27.6647909 C214.435435,27.9776636 214.01972,28.1341 213.696708,28.1341 L212.789956,28.1341 C212.314853,28.1341 211.748496,27.8646818 211.089435,27.324397 C210.485417,26.655197 210.182684,25.9700636 210.182684,25.268997 L210.182684,25.0256515 C210.182684,24.0971727 210.609987,23.2990576 211.461696,22.6298576 C212.001981,22.251803 212.568338,22.0635 213.162217,22.0635" id="Fill-16" fill="#1E8DE0"></path>
                <g id="Group-20" transform="translate(86.909091, 0.164982)">
                    <mask id="mask-8" fill="white">
                        <use xlink:href="#path-7"></use>
                    </mask>
                    <g id="Clip-19"></g>
                    <path d="M3.18710121,0.283647273 L12.5776285,0.283647273 C13.3656042,0.283647273 14.0188709,0.687774545 14.53598,1.49747758 C14.7199376,1.86539273 14.8111921,2.21592606 14.8111921,2.55052606 L14.8111921,25.7349745 C14.8111921,26.5982715 14.3751982,27.2848533 13.5003133,27.791823 C13.2091679,27.9105988 13.003483,27.9699867 12.8847073,27.9699867 L12.0923861,27.9699867 C11.7143315,27.9482594 11.288477,27.7324352 10.8133739,27.3225139 C10.3817255,26.8691382 10.1644527,26.26512 10.1644527,25.5090109 L10.1644527,4.91445333 L3.15523455,4.91445333 C2.43244061,4.91445333 1.79945273,4.54074424 1.26061636,3.79622303 C1.04479212,3.35443515 0.936155758,2.95465333 0.936155758,2.59832606 C0.936155758,1.80021091 1.30407091,1.1411503 2.03845273,0.622592727 C2.42664667,0.396629091 2.80904667,0.283647273 3.18710121,0.283647273" id="Fill-18" fill="#F1F1F2" mask="url(#mask-8)"></path>
                </g>
                <path d="M212.676395,0.772510909 C213.475959,0.772510909 214.214686,1.18243212 214.894025,2.00227455 C221.079056,8.18730485 226.972941,14.0753958 232.574232,19.6665473 L232.591613,19.6665473 L232.591613,3.28128667 C232.591613,2.24562 233.104377,1.47357758 234.129904,0.966607879 C234.452916,0.836244242 234.781722,0.772510909 235.117771,0.772510909 C235.959341,0.772510909 236.654613,1.17084424 237.206486,1.97040788 C237.442589,2.3701897 237.561365,2.77431697 237.561365,3.18568667 L237.561365,25.7878442 C237.561365,26.5859594 237.167377,27.2609533 236.379401,27.8113776 C236.002795,28.0257533 235.704407,28.1343897 235.490032,28.1343897 L234.664395,28.1343897 C234.284892,28.1343897 233.827171,27.9026321 233.286886,27.439117 C232.595959,26.7047352 228.527165,22.6243533 221.079056,15.1979715 C214.581153,8.70006848 211.138104,5.25122606 210.74991,4.85144424 C210.371856,4.36620182 210.183553,3.87082 210.183553,3.36240182 L210.183553,3.12050485 C210.183553,2.4078503 210.544225,1.76617152 211.268468,1.19402 C211.731983,0.913013939 212.201292,0.772510909 212.676395,0.772510909" id="Fill-21" fill="#F1F1F2"></path>
            </g>
        </g>
    </g>
</svg>